Coordinates
version=1
nRows=59
nColumns=19
inDegrees=yes

Units are S.I. units (second, meters, Newtons, ...)
Angles are in degrees.

endheader
time	1_Force_X	1_Force_Y	1_Force_Z	1_Moment_X	1_Moment_Y	1_Moment_Z	1_COP_X	1_COP_Y	1_COP_Z	2_Force_X	2_Force_Y	2_Force_Z	2_Moment_X	2_Moment_Y	2_Moment_Z	2_COP_X	2_COP_Y	2_COP_Z
0.5550	51.376	-11.550	2.165	-0.372	0.000	0.467	-9.096	1.078	-1.038	-0.213	0.000	0.255	0.00000	4.34559	0.00000	0.00000	69.45968	0.00000
0.5575	51.598	-11.895	1.990	-0.377	0.000	0.475	-9.011	1.765	-0.773	-0.215	0.000	0.254	0.00000	3.70544	0.00000	0.00000	44.98593	0.00000
0.5600	51.469	-12.763	2.301	-0.372	0.000	0.476	-9.008	2.624	-0.989	-0.216	0.000	0.253	0.00000	3.50328	0.00000	0.00000	31.43211	0.00000
0.5625	51.776	-11.899	1.988	-0.378	0.000	0.475	-8.748	1.593	-0.902	-0.213	0.000	0.255	0.00000	3.66970	0.00000	0.00000	47.78349	0.00000
0.5650	51.684	-10.858	2.074	-0.377	0.000	0.468	-8.967	2.623	-0.814	-0.216	0.000	0.253	0.00000	4.37166	0.00000	0.00000	31.64790	0.00000
0.5675	51.472	-11.892	2.431	-0.382	0.000	0.476	-9.358	2.620	-1.169	-0.214	0.000	0.250	0.00000	3.51475	0.00000	0.00000	31.39466	0.00000
0.5700	51.600	-11.025	2.033	-0.384	0.000	0.481	-8.964	2.274	-1.383	-0.215	0.000	0.254	0.00000	3.22226	0.00000	0.00000	34.20527	0.00000
0.5725	51.559	-11.544	2.300	-0.380	0.000	0.486	-9.227	3.307	-1.253	-0.215	0.000	0.250	0.00000	2.78926	0.00000	0.00000	25.53443	0.00000
0.5750	51.684	-11.028	1.722	-0.383	0.000	0.474	-9.357	3.480	-1.341	-0.215	0.000	0.249	0.00000	3.87572	0.00000	0.00000	24.61629	0.00000
0.5775	52.126	-11.903	1.941	-0.377	0.000	0.470	-8.968	1.591	-0.775	-0.214	0.000	0.253	0.00000	4.12949	0.00000	0.00000	48.69726	0.00000
0.5800	52.128	-12.946	1.987	-0.373	0.000	0.472	-8.880	1.936	-0.860	-0.213	0.000	0.254	0.00000	3.82819	0.00000	0.00000	40.61039	0.00000
0.5825	52.038	-12.424	1.987	-0.370	0.000	0.472	-8.879	1.935	-0.947	-0.213	0.000	0.254	0.00000	3.93359	0.00000	0.00000	40.26163	0.00000
0.5850	52.306	-11.905	2.160	-0.379	0.000	0.469	-8.967	2.626	-0.640	-0.215	0.000	0.251	0.00000	4.13936	0.00000	0.00000	31.80701	0.00000
0.5875	51.909	-11.376	1.854	-0.386	0.000	0.479	-9.141	3.134	-1.078	-0.215	0.000	0.251	0.00000	3.36623	0.00000	0.00000	26.88565	0.00000
0.5900	51.907	-11.555	1.942	-0.377	0.000	0.474	-9.271	3.306	-1.210	-0.215	0.000	0.250	0.00000	3.79496	0.00000	0.00000	25.75187	0.00000
0.5925	52.086	-12.766	1.945	-0.378	0.000	0.480	-8.879	3.820	-1.296	-0.214	0.000	0.247	0.00000	3.27144	0.00000	0.00000	21.47848	0.00000
0.5950	51.955	-11.204	2.030	-0.386	0.000	0.479	-9.098	3.479	-0.992	-0.215	0.000	0.246	0.00000	3.34114	0.00000	0.00000	24.14171	0.00000
0.5975	52.260	-11.035	2.028	-0.379	0.000	0.479	-8.923	2.619	-1.212	-0.212	0.000	0.249	0.00000	3.46948	0.00000	0.00000	29.59755	0.00000
0.6000	52.527	-11.901	2.030	-0.379	0.000	0.486	-8.968	3.651	-0.904	-0.214	0.000	0.247	0.00000	2.83406	0.00000	0.00000	23.15706	0.00000
0.6025	52.702	-12.602	2.116	-0.376	0.000	0.473	-8.663	1.935	-0.730	-0.214	0.000	0.250	0.00000	3.86645	0.00000	0.00000	39.07615	0.00000
0.6050	52.833	-12.430	1.983	-0.375	0.000	0.473	-8.446	2.622	-0.685	-0.213	0.000	0.249	0.00000	3.88884	0.00000	0.00000	29.34899	0.00000
0.6075	52.394	-10.686	2.159	-0.387	0.000	0.476	-8.835	3.992	-1.207	-0.215	0.000	0.247	0.00000	3.77412	0.00000	0.00000	20.90339	0.00000
0.6100	52.264	-11.899	1.987	-0.382	0.000	0.488	-8.532	3.304	-1.165	-0.213	0.000	0.248	0.00000	2.59053	0.00000	0.00000	23.43554	0.00000
0.6125	52.751	-13.122	2.205	-0.378	0.000	0.477	-8.533	2.795	-0.642	-0.213	0.000	0.247	0.00000	3.45476	0.00000	0.00000	27.97915	0.00000
0.6150	52.703	-12.254	1.807	-0.382	0.000	0.479	-8.927	4.337	-0.771	-0.213	0.000	0.246	0.00000	3.33680	0.00000	0.00000	20.29585	0.00000
0.6175	52.661	-11.729	2.205	-0.381	0.000	0.485	-8.619	3.649	-1.122	-0.211	0.000	0.246	0.00000	2.89947	0.00000	0.00000	21.78461	0.00000
0.6200	53.188	-12.611	2.067	-0.375	0.000	0.470	-8.359	2.794	-0.639	-0.213	0.000	0.249	0.00000	4.04171	0.00000	0.00000	27.80240	0.00000
0.6225	53.141	-12.784	1.937	-0.370	0.000	0.474	-8.317	2.794	-0.510	-0.212	0.000	0.247	0.00000	3.76995	0.00000	0.00000	27.65662	0.00000
0.6250	53.096	-10.697	1.978	-0.380	0.000	0.475	-8.796	3.648	-0.906	-0.212	0.000	0.245	0.00000	3.89254	0.00000	0.00000	22.31478	0.00000
0.6275	53.189	-12.434	2.067	-0.383	0.000	0.467	-8.230	3.137	-0.509	-0.212	0.000	0.247	0.00000	4.30247	0.00000	0.00000	24.87481	0.00000
0.6300	53.408	-12.260	1.804	-0.378	0.000	0.483	-8.274	3.138	-0.377	-0.213	0.000	0.247	0.00000	3.10950	0.00000	0.00000	25.38780	0.00000
0.6325	53.366	-12.780	1.936	-0.380	0.000	0.480	-8.493	3.311	-0.334	-0.212	0.000	0.247	0.00000	3.29047	0.00000	0.00000	24.92443	0.00000
0.6350	53.451	-12.611	1.891	-0.376	0.000	0.474	-8.362	4.341	-0.201	-0.215	0.000	0.243	0.00000	3.75595	0.00000	0.00000	19.80572	0.00000
0.6375	53.761	-13.304	2.201	-0.373	0.000	0.477	-8.364	2.966	-0.250	-0.211	0.000	0.245	0.00000	3.54140	0.00000	0.00000	26.54462	0.00000
0.6400	53.759	-12.788	1.844	-0.376	0.000	0.470	-8.276	3.824	-0.289	-0.213	0.000	0.245	0.00000	4.11482	0.00000	0.00000	21.57822	0.00000
0.6425	53.676	-12.605	2.113	-0.381	0.000	0.484	-8.451	4.507	-0.509	-0.213	0.000	0.243	0.00000	2.96279	0.00000	0.00000	18.72727	0.00000
0.6450	53.588	-11.563	2.242	-0.391	0.000	0.475	-8.451	3.647	-0.599	-0.211	0.000	0.244	0.00000	3.80710	0.00000	0.00000	21.92573	0.00000
0.6475	54.027	-11.565	2.198	-0.385	0.000	0.483	-8.319	3.476	-0.598	-0.212	0.000	0.244	0.00000	3.18132	0.00000	0.00000	22.47594	0.00000
0.6500	54.331	-12.268	2.108	-0.375	0.000	0.473	-8.103	4.166	-0.246	-0.213	0.000	0.243	0.00000	4.06232	0.00000	0.00000	19.65125	0.00000
0.6525	54.466	-13.136	2.108	-0.376	0.000	0.475	-8.279	3.825	-0.030	-0.212	0.000	0.242	0.00000	3.76561	0.00000	0.00000	21.57546	0.00000
0.6550	54.509	-11.918	2.328	-0.380	0.000	0.475	-7.889	4.512	0.324	-0.214	0.000	0.242	0.00000	3.94303	0.00000	0.00000	18.88545	0.00000
0.6575	54.645	-13.830	2.550	-0.374	0.000	0.472	-8.150	4.341	0.235	-0.213	0.000	0.242	0.00000	4.03083	0.00000	0.00000	19.80680	0.00000
0.6600	55.171	-12.616	2.857	-0.371	0.000	0.473	-7.888	4.339	0.236	-0.214	0.000	0.242	0.00000	4.10259	0.00000	0.00000	19.28206	0.00000
0.6625	54.954	-11.743	2.680	-0.383	0.000	0.482	-8.368	5.368	0.016	-0.213	0.000	0.239	0.00000	3.31631	0.00000	0.00000	16.67778	0.00000
0.6650	55.043	-11.565	3.078	-0.384	0.000	0.483	-8.369	5.023	-0.030	-0.212	0.000	0.239	0.00000	3.30635	0.00000	0.00000	17.39520	0.00000
0.6675	55.043	-11.567	2.856	-0.385	0.000	0.482	-8.107	5.539	0.149	-0.215	0.000	0.239	0.00000	3.34323	0.00000	0.00000	16.12469	0.00000
0.6700	55.350	-11.567	2.987	-0.388	0.000	0.476	-8.456	4.679	-0.030	-0.211	0.000	0.241	0.00000	4.02016	0.00000	0.00000	18.57583	0.00000
0.6725	55.484	-11.739	3.121	-0.387	0.000	0.481	-8.152	5.022	0.237	-0.214	0.000	0.242	0.00000	3.53898	0.00000	0.00000	17.68454	0.00000
0.6750	55.883	-13.825	3.431	-0.377	0.000	0.477	-7.804	5.026	0.543	-0.214	0.000	0.240	0.00000	3.78364	0.00000	0.00000	17.35620	0.00000
0.6775	55.750	-13.301	3.432	-0.381	0.000	0.476	-7.806	5.199	0.762	-0.214	0.000	0.239	0.00000	3.94604	0.00000	0.00000	17.20385	0.00000
0.6800	56.234	-13.308	3.517	-0.377	0.000	0.475	-8.158	3.653	0.887	-0.210	0.000	0.242	0.00000	4.05277	0.00000	0.00000	23.67064	0.00000
0.6825	56.104	-13.126	3.520	-0.383	0.000	0.483	-7.893	4.507	0.452	-0.211	0.000	0.239	0.00000	3.34803	0.00000	0.00000	18.60384	0.00000
0.6850	56.239	-12.430	4.049	-0.383	0.000	0.488	-7.894	5.710	0.541	-0.213	0.000	0.236	0.00000	2.99568	0.00000	0.00000	15.52010	0.00000
0.6875	56.279	-12.603	3.520	-0.386	0.000	0.486	-7.850	4.854	0.627	-0.211	0.000	0.237	0.00000	3.24950	0.00000	0.00000	17.67502	0.00000
0.6900	56.456	-12.430	3.828	-0.383	0.000	0.488	-7.982	5.711	0.717	-0.215	0.000	0.238	0.00000	3.02882	0.00000	0.00000	16.02220	0.00000
0.6925	56.940	-12.951	3.871	-0.385	0.000	0.484	-7.848	5.709	0.323	-0.213	0.000	0.236	0.00000	3.48046	0.00000	0.00000	15.30041	0.00000
0.6950	56.902	-13.827	4.045	-0.383	0.000	0.477	-7.766	3.998	1.151	-0.212	0.000	0.240	0.00000	3.81332	0.00000	0.00000	21.42345	0.00000
0.6975	57.162	-12.957	4.310	-0.379	0.000	0.478	-7.416	5.543	1.024	-0.215	0.000	0.236	0.00000	3.95665	0.00000	0.00000	15.82321	0.00000
0.7000	57.250	-13.478	4.222	-0.380	0.000	0.474	-7.504	4.684	1.020	-0.211	0.000	0.236	0.00000	4.33121	0.00000	0.00000	17.96661	0.00000
